HIERARCHY
ROOT root
{
	OFFSET 0.000000 0.000000 0.000000
	CHANNELS 6 Xposition Yposition Zposition Zrotation Yrotation Xrotation
	JOINT lhip
	{
		OFFSET 0.058581 -0.082280 -0.017664
		CHANNELS 3 Zrotation Yrotation Xrotation
		JOINT lknee
		{
			OFFSET 0.043451 -0.386469 0.008037
			CHANNELS 3 Zrotation Yrotation Xrotation
			JOINT lankle
			{
				OFFSET -0.014790 -0.426874 -0.037428
				CHANNELS 3 Zrotation Yrotation Xrotation
				JOINT ltoe
				{
					OFFSET 0.041054 -0.060286 0.122042
					CHANNELS 3 Zrotation Yrotation Xrotation
					End Site
					{
						OFFSET 0.000000 0.000000 0.000000
					}
				}
			}
		}
	}
	JOINT rhip
	{
		OFFSET -0.060310 -0.090513 -0.013543
		CHANNELS 3 Zrotation Yrotation Xrotation
		JOINT rknee
		{
			OFFSET -0.043257 -0.383688 -0.004843
			CHANNELS 3 Zrotation Yrotation Xrotation
			JOINT rankle
			{
				OFFSET 0.019056 -0.420046 -0.034562
				CHANNELS 3 Zrotation Yrotation Xrotation
				JOINT rtoe
				{
					OFFSET -0.034840 -0.062106 0.130323
					CHANNELS 3 Zrotation Yrotation Xrotation
					End Site
					{
						OFFSET 0.000000 0.000000 0.000000
					}
				}
			}
		}
	}
	JOINT lowerback
	{
		OFFSET 0.004439 0.124404 -0.038385
		CHANNELS 3 Zrotation Yrotation Xrotation
		JOINT upperback
		{
			OFFSET 0.004488 0.137956 0.026820
			CHANNELS 3 Zrotation Yrotation Xrotation
			JOINT chest
			{
				OFFSET -0.002265 0.056032 0.002855
				CHANNELS 3 Zrotation Yrotation Xrotation
				JOINT lowerneck
				{
					OFFSET -0.013390 0.211636 -0.033468
					CHANNELS 3 Zrotation Yrotation Xrotation
					JOINT upperneck
					{
						OFFSET 0.010113 0.088937 0.050410
						CHANNELS 3 Zrotation Yrotation Xrotation
						End Site
						{
							OFFSET 0.000000 0.000000 0.000000
						}
					}
				}
				JOINT lclavicle
				{
					OFFSET 0.071702 0.114000 -0.018898
					CHANNELS 3 Zrotation Yrotation Xrotation
					JOINT lshoulder
					{
						OFFSET 0.122921 0.045205 -0.019046
						CHANNELS 3 Zrotation Yrotation Xrotation
						JOINT lelbow
						{
							OFFSET 0.255332 -0.015649 -0.022946
							CHANNELS 3 Zrotation Yrotation Xrotation
							JOINT lwrist
							{
								OFFSET 0.265709 0.012698 -0.007375
								CHANNELS 3 Zrotation Yrotation Xrotation
								End Site
								{
									OFFSET 0.000000 0.000000 0.000000
								}
							}
						}
					}
				}
				JOINT rclavicle
				{
					OFFSET -0.082954 0.112472 -0.023707
					CHANNELS 3 Zrotation Yrotation Xrotation
					JOINT rshoulder
					{
						OFFSET -0.113228 0.046853 -0.008472
						CHANNELS 3 Zrotation Yrotation Xrotation
						JOINT relbow
						{
							OFFSET -0.260127 -0.014369 -0.031269
							CHANNELS 3 Zrotation Yrotation Xrotation
							JOINT rwrist
							{
								OFFSET -0.269108 0.006794 -0.006027
								CHANNELS 3 Zrotation Yrotation Xrotation
								End Site
								{
									OFFSET 0.000000 0.000000 0.000000
								}
							}
						}
					}
				}
			}
		}
	}
}
MOTION
Frames: 13
Frame Time: 0.033333
0.010462 0.232574 1.002549 82.806141 0.938527 89.336741 5.744877 3.254714 -4.134075 -3.132416 -5.495746 11.658883 0.845851 12.512842 -8.724539 0.000000 -0.000000 0.000000 -4.737543 -2.041203 -6.008607 1.446093 5.341482 9.115933 2.507978 -6.425909 -4.635885 0.000000 -0.000000 0.000000 -0.710996 1.281293 5.736584 -0.429108 -1.601453 6.220342 -2.369802 1.473833 -8.753143 0.116889 -9.233477 2.673925 1.649749 -4.155884 3.950567 -29.456782 8.244857 -1.572892 -45.141858 6.199674 13.875780 15.303170 -40.532261 -8.665942 -6.190647 -13.789420 -2.996021 24.909846 -2.055039 2.327180 45.040154 2.629369 11.092651 3.178998 39.299134 9.390820 -0.054927 7.518536 11.505240 
0.009962 0.232959 1.002633 82.907198 0.915001 89.324633 5.686440 3.182253 -4.207920 -3.134205 -5.541176 11.708007 0.884036 12.532245 -8.737030 0.000000 -0.000000 0.000000 -4.745019 -2.031869 -6.059367 1.366912 5.361336 9.202797 2.555276 -6.494761 -4.672889 0.000000 -0.000000 0.000000 -0.700068 1.289530 5.909501 -0.455178 -1.550296 6.111367 -2.380951 1.530912 -8.712082 0.090645 -9.282675 2.688623 1.663852 -4.185740 4.010945 -29.460062 8.268971 -1.580337 -45.206526 6.255057 13.959820 15.308732 -40.721245 -8.680212 -5.642662 -13.859437 -3.208915 24.953007 -2.050945 2.322124 44.981014 2.601169 11.136171 3.164431 39.103748 9.455469 -0.584083 7.743789 11.480164 
0.009688 0.233227 1.002802 83.009872 0.915536 89.306543 5.674046 3.126090 -4.306488 -3.188285 -5.622986 11.878503 0.893369 12.577314 -8.764447 0.000000 -0.000000 0.000000 -4.765480 -2.109041 -6.054128 1.399013 5.412571 9.229105 2.569988 -6.572018 -4.629543 0.000000 -0.000000 0.000000 -0.641253 1.379303 5.925043 -0.494423 -1.557720 6.117086 -2.431134 1.489035 -8.596874 0.177144 -9.235763 2.620319 1.624406 -4.206965 4.150395 -29.446357 8.424877 -1.696393 -45.326639 6.165130 13.929265 15.388457 -40.738209 -8.848359 -6.064891 -13.702818 -2.999241 25.015476 -2.029076 2.517786 44.924926 2.860548 11.177756 3.020658 38.274713 9.100871 -0.439196 7.221456 11.704323 
0.009451 0.233538 1.003064 83.199752 0.903436 89.326575 5.618359 3.028372 -4.489861 -3.194130 -5.685685 12.099865 0.885102 12.568429 -8.837624 0.000000 -0.000000 0.000000 -4.732290 -2.185089 -6.086080 1.308625 5.440033 9.303190 2.502211 -6.673047 -4.668093 0.000000 -0.000000 0.000000 -0.587181 1.414810 6.163183 -0.517177 -1.529438 5.775306 -2.452640 1.434193 -8.547878 0.214367 -9.264779 2.629838 1.492156 -4.239278 4.288799 -29.434541 8.604441 -1.750081 -45.352007 6.232912 14.000608 15.002842 -40.498768 -8.705090 -5.989345 -13.966063 -2.639622 24.989199 -2.160805 2.497419 44.912311 2.869435 11.280174 3.037231 36.960544 9.083486 -0.359629 7.256066 12.202132 
0.009389 0.233886 1.003112 83.426095 0.909115 89.383975 5.561589 2.968536 -4.676456 -3.188280 -5.898516 12.237259 0.860180 12.663001 -8.870835 0.000000 -0.000000 0.000000 -4.718835 -2.242961 -6.128026 1.298406 5.513953 9.339762 2.468990 -6.882080 -4.693944 0.000000 -0.000000 0.000000 -0.541221 1.463957 6.243678 -0.491871 -1.497407 5.624799 -2.441782 1.440333 -8.549983 0.143068 -9.402350 2.559418 1.449593 -4.006320 4.401465 -29.358259 8.657061 -1.704325 -45.630407 6.292469 14.164216 15.020231 -40.230862 -8.458610 -5.813408 -13.651309 -3.423641 24.846893 -2.297974 2.572173 45.006261 2.794367 11.295634 2.996013 35.376185 9.283013 -0.851760 7.373239 12.361487 
0.009334 0.234143 1.003286 83.629210 0.916153 89.351218 5.558072 2.888080 -4.774578 -3.236203 -6.042833 12.423194 0.811405 12.733878 -8.914769 0.000000 -0.000000 0.000000 -4.700520 -2.273267 -6.088756 1.282986 5.526402 9.406742 2.334259 -7.076439 -4.732844 0.000000 -0.000000 0.000000 -0.467941 1.526423 6.559859 -0.541817 -1.467511 5.417010 -2.421504 1.509128 -8.642705 0.152086 -9.498964 2.462884 1.415511 -3.942869 4.454082 -29.500880 8.692853 -1.673915 -45.606833 6.330230 14.212243 14.854409 -39.899227 -8.251347 -6.198048 -13.859941 -3.303063 24.758701 -2.440471 2.320105 45.020245 2.371474 11.247699 2.960632 33.813042 9.253365 -0.441439 7.117946 12.356975 
0.009688 0.234367 1.003220 83.766965 0.993754 89.287932 5.626481 2.833043 -4.771997 -3.275457 -6.184466 12.558176 0.842692 12.858054 -8.978965 0.000000 -0.000000 0.000000 -4.603420 -2.339290 -5.978889 1.264428 5.638056 9.423086 2.269379 -7.236818 -4.739608 0.000000 -0.000000 0.000000 -0.275258 1.492639 6.547400 -0.592764 -1.453325 5.502698 -2.458796 1.550468 -8.577909 0.171853 -9.461964 2.419399 1.294463 -3.834690 4.459367 -29.656325 8.655027 -1.684406 -45.670632 6.510983 14.102520 14.886235 -39.645940 -8.462672 -6.012542 -13.463045 -2.913499 24.707389 -2.290975 2.476003 44.996527 2.424706 11.136663 2.697700 31.943961 8.846494 -0.187150 6.839777 12.317638 
0.009741 0.234386 1.003440 83.922202 0.977120 89.255839 5.614417 2.803566 -4.852869 -3.319480 -6.305644 12.761197 0.770965 12.848390 -9.038731 0.000000 -0.000000 0.000000 -4.603137 -2.355718 -5.935787 1.231146 5.614793 9.514673 2.184068 -7.313733 -4.837476 0.000000 -0.000000 0.000000 -0.253941 1.515490 6.696689 -0.634038 -1.398315 5.378637 -2.432501 1.569971 -8.577700 0.152907 -9.348158 2.469690 1.254973 -3.876126 4.378018 -29.572077 8.656374 -1.782706 -45.900209 6.479244 14.151892 14.562948 -38.799419 -8.364577 -6.179224 -13.790328 -2.704411 24.653345 -2.303310 2.496182 45.064089 2.399314 11.022657 2.509961 29.924627 8.266115 0.287995 6.714558 12.406121 
0.010242 0.234433 1.003507 83.856959 1.010129 89.123910 5.680713 2.648259 -4.665450 -3.363926 -6.238090 12.783700 0.778095 12.993162 -9.020188 0.000000 -0.000000 0.000000 -4.558176 -2.427773 -5.800121 1.223466 5.807050 9.600964 2.197998 -7.344655 -4.894113 0.000000 -0.000000 0.000000 -0.136867 1.576334 6.833545 -0.695373 -1.288221 5.403961 -2.448090 1.670840 -8.625328 0.211931 -9.227141 2.466174 1.054508 -3.867945 4.537725 -29.677065 8.709809 -1.887026 -45.889961 6.523429 14.126770 14.379493 -38.214223 -8.228496 -6.276904 -13.820834 -2.272423 24.619720 -2.304689 2.669835 45.014008 2.288464 10.872584 2.305758 28.430141 7.705778 0.737026 6.652703 12.384883 
0.010508 0.234599 1.003545 83.972776 1.034792 89.162155 5.702528 2.685396 -4.826201 -3.388822 -6.382872 12.979657 0.664849 13.020907 -9.100120 0.000000 -0.000000 0.000000 -4.505738 -2.530409 -5.852495 1.194175 5.851858 9.676885 2.107681 -7.423086 -4.888282 0.000000 -0.000000 0.000000 -0.014681 1.502861 6.776993 -0.735555 -1.238589 5.408695 -2.472428 1.747918 -8.600260 0.082543 -9.228188 2.590987 1.024541 -3.868088 4.502350 -29.901507 8.743207 -1.899740 -45.751733 6.519550 14.057034 14.229345 -37.972314 -8.159253 -6.414206 -13.877378 -2.027973 24.544464 -2.351364 2.710058 44.932171 2.111156 10.742335 2.368565 27.214881 7.714647 0.717908 6.659061 12.496705 
0.011465 0.234779 1.003543 83.944529 1.062562 89.058892 5.760221 2.623039 -4.626729 -3.421044 -6.396334 12.955352 0.598422 13.164504 -9.069313 0.000000 -0.000000 0.000000 -4.429174 -2.618882 -5.756301 1.140245 6.009974 9.798177 2.086462 -7.468815 -4.998075 0.000000 -0.000000 0.000000 0.067826 1.432057 6.600953 -0.738154 -1.145686 5.706924 -2.516399 1.885777 -8.575868 -0.031443 -9.202428 2.807455 1.042312 -3.684628 4.377599 -30.050589 8.910704 -1.924141 -45.778803 6.507113 13.989409 14.197820 -37.845643 -8.068545 -6.225642 -13.465362 -1.944849 24.394111 -2.547918 2.772610 44.952367 2.041765 10.580757 2.370984 26.615013 7.735852 0.996711 6.379552 12.259339 
0.013228 0.236823 1.003485 82.923887 1.063952 89.162555 5.465486 3.405174 -4.190688 -3.071301 -6.218017 12.443536 0.702345 13.283135 -9.221426 0.000000 -0.000000 0.000000 -4.678755 -2.246915 -6.077456 1.376953 6.236840 10.026461 2.144962 -7.023055 -4.995576 0.000000 -0.000000 0.000000 0.728773 2.053911 5.878155 -0.920905 -0.933378 6.504565 -2.965505 2.067417 -8.854174 -0.307172 -9.456991 3.114873 1.101797 -3.341328 4.272881 -30.323042 9.065292 -2.073175 -45.640410 6.542922 14.083560 14.200217 -37.602398 -7.985555 -6.933769 -13.743410 -1.663213 24.314528 -2.862559 2.800248 44.809235 2.007946 10.256933 2.660824 26.285435 7.446426 1.111206 6.672474 13.226817 
0.013222 0.236818 1.003487 82.923764 1.062984 89.166910 5.462463 3.408166 -4.197331 -3.067500 -6.216390 12.447176 0.704150 13.282384 -9.223682 0.000000 -0.000000 0.000000 -4.681021 -2.241162 -6.087129 1.380086 6.237066 10.034609 2.149527 -7.025909 -4.996380 0.000000 -0.000000 0.000000 0.734781 2.058118 5.875160 -0.925048 -0.933024 6.500766 -2.968486 2.066999 -8.845165 -0.310124 -9.448914 3.118070 1.100696 -3.335190 4.272794 -30.318485 9.061483 -2.077339 -45.643349 6.546982 14.086214 14.195262 -37.594725 -7.983276 -6.926802 -13.753540 -1.662723 24.308155 -2.867837 2.798296 44.811341 1.995066 10.257034 2.656579 26.287266 7.444379 1.102672 6.677205 13.214181 
